<?xml version="1.0" standalone="no"?>
<!DOCTYPE svg PUBLIC "-//W3C//DTD SVG 20010904//EN"
 "http://www.w3.org/TR/2001/REC-SVG-20010904/DTD/svg10.dtd">
<svg version="1.0" xmlns="http://www.w3.org/2000/svg"
 width="400.000000pt" height="400.000000pt" viewBox="0 0 400.000000 400.000000"
 preserveAspectRatio="xMidYMid meet">
<metadata>
Created by potrace 1.14, written by Peter Selinger 2001-2017
</metadata>
<g transform="translate(0.000000,400.000000) scale(0.100000,-0.100000)"
fill="#000000" stroke="none">
<path d="M1425 3446 c-113 -32 -222 -120 -311 -253 -113 -165 -177 -321 -249
-598 -75 -292 -98 -447 -99 -675 -1 -180 7 -238 45 -327 l18 -42 -37 -12
c-102 -33 -184 -97 -198 -155 -4 -14 -4 -44 -2 -68 5 -41 4 -44 -27 -55 -50
-18 -121 -85 -140 -133 -23 -58 -7 -113 52 -178 l45 -50 -60 -82 c-80 -112
-124 -194 -179 -335 -52 -136 -117 -313 -143 -393 -10 -30 -21 -63 -25 -73 -7
-16 -1 -18 81 -15 l88 3 46 175 c92 348 130 442 235 583 117 156 189 207 312
222 26 3 58 8 71 11 17 3 39 -10 91 -55 169 -145 335 -223 379 -179 28 28 8
63 -40 72 -74 13 -221 111 -350 233 -43 41 -86 73 -97 73 -21 0 -46 -34 -36
-50 3 -5 -7 -12 -22 -16 -135 -29 -219 -63 -238 -94 -10 -17 -23 -11 -54 23
-40 42 -64 92 -56 118 9 26 67 62 138 85 54 17 61 17 100 2 61 -22 102 -4 91
39 -4 14 -22 27 -52 38 -26 9 -55 26 -64 37 -46 53 3 123 99 141 30 6 35 2 75
-49 48 -61 120 -121 218 -179 36 -22 106 -68 155 -104 172 -122 386 -208 578
-232 112 -14 415 -6 572 16 232 31 326 66 460 170 73 56 97 59 76 7 -10 -25
-72 -85 -147 -145 -40 -31 -154 -79 -200 -85 -49 -5 -75 -30 -67 -63 17 -63
209 -4 358 109 l59 45 37 -41 c52 -59 102 -168 139 -302 17 -63 71 -225 119
-360 l87 -245 46 -3 46 -3 -52 143 c-75 205 -151 431 -174 518 -35 134 -80
224 -153 312 -38 46 -39 47 -24 82 19 46 19 86 -1 114 -15 22 -14 25 38 80
110 116 194 260 250 427 19 59 23 90 23 205 0 176 -22 271 -125 545 -29 77
-40 127 -50 215 -39 375 -105 616 -183 674 -62 45 -256 17 -407 -59 -132 -67
-259 -182 -295 -269 -16 -37 -16 -38 -58 -29 -62 12 -139 7 -205 -13 -31 -9
-60 -17 -65 -18 -4 -1 -20 28 -35 64 -102 239 -192 371 -296 438 -49 30 -139
38 -211 18z m173 -155 c42 -21 112 -92 159 -161 66 -98 152 -289 162 -365 3
-22 10 -40 15 -40 8 0 41 57 50 88 5 15 19 17 108 17 110 0 210 -19 345 -66
41 -14 76 -24 78 -22 11 10 -46 107 -80 136 l-37 33 23 26 c46 48 205 172 292
227 112 70 192 101 224 87 53 -24 101 -183 147 -491 3 -20 10 -87 16 -150 9
-92 18 -131 46 -200 33 -80 70 -190 110 -325 13 -43 18 -97 18 -190 1 -124 -1
-134 -31 -210 -92 -227 -290 -445 -505 -555 -211 -107 -455 -142 -733 -105
-543 72 -991 384 -1091 758 -30 114 -13 418 35 637 85 381 314 775 506 870 50
25 95 25 143 1z"/>
<path d="M3010 2019 c-74 -3 -154 -7 -178 -8 -40 -1 -44 -4 -58 -38 -36 -85
-26 -202 21 -249 28 -28 72 -31 115 -9 55 28 131 142 145 216 6 31 12 37 66
58 57 23 78 43 42 39 -10 -1 -79 -5 -153 -9z"/>
<path d="M1886 2000 l-120 -5 -20 -35 c-28 -47 -30 -218 -4 -266 33 -60 98
-80 156 -50 64 33 151 158 172 246 10 43 16 51 43 59 53 16 137 47 144 54 7 8
-183 6 -371 -3z"/>
<path d="M2443 1790 c-46 -21 -68 -51 -59 -84 7 -27 88 -112 128 -132 47 -24
73 -12 103 50 54 110 44 152 -40 175 -54 15 -83 13 -132 -9z"/>
<path d="M2276 1529 c-22 -31 -9 -57 47 -93 15 -10 27 -27 27 -37 0 -34 42
-109 77 -138 71 -59 161 -62 211 -8 32 34 36 67 14 124 l-19 51 28 21 c34 25
36 41 9 66 -20 18 -22 18 -49 2 -26 -15 -33 -15 -81 -1 -42 12 -58 13 -81 4
-16 -7 -29 -16 -29 -21 0 -20 -52 -7 -83 21 -41 36 -51 37 -71 9z m288 -154
c32 -67 12 -96 -48 -71 -32 13 -86 72 -86 93 0 9 22 23 35 23 1 0 8 -13 15
-30 8 -19 20 -30 32 -30 21 0 21 14 1 67 -6 17 -6 17 15 0 11 -11 28 -34 36
-52z"/>
<path d="M2341 791 c-16 -10 -30 -81 -30 -155 -1 -41 -3 -47 -18 -42 -42 17
-170 17 -242 2 -86 -18 -91 -15 -91 49 0 87 -33 145 -74 129 -23 -9 -28 -38
-17 -101 6 -31 11 -76 11 -99 0 -35 -5 -45 -27 -59 -95 -60 -190 -209 -218
-340 -28 -136 -20 -175 36 -175 l39 0 0 75 c0 115 40 217 121 309 35 41 52 46
41 14 -12 -33 -4 -56 21 -64 30 -9 54 24 68 96 l11 58 57 18 c65 22 185 24
247 6 l41 -12 7 -63 c8 -77 23 -156 42 -224 17 -58 44 -77 72 -49 15 15 15 23
-3 103 -23 111 -33 183 -25 183 16 0 91 -75 123 -123 51 -77 77 -161 77 -252
l0 -75 39 0 c43 0 51 10 51 68 -1 174 -119 385 -259 463 l-44 24 5 113 c5 101
4 114 -13 122 -22 12 -30 12 -48 1z"/>
<path d="M1377 593 c-5 -7 -23 -82 -47 -188 -15 -65 -19 -90 -25 -131 -17
-113 -38 -231 -46 -252 -9 -22 -7 -23 39 -20 l47 3 18 100 c10 55 34 177 53
270 39 193 40 210 18 219 -22 8 -52 8 -57 -1z"/>
<path d="M2961 511 c-15 -10 -14 -37 10 -321 17 -202 13 -190 63 -190 l42 0
-7 68 c-3 37 -12 139 -19 227 -16 203 -19 219 -51 223 -13 1 -30 -2 -38 -7z"/>
</g>
</svg>
